<?xml version="1.0" standalone="no"?>
<!DOCTYPE svg PUBLIC "-//W3C//DTD SVG 20010904//EN"
 "http://www.w3.org/TR/2001/REC-SVG-20010904/DTD/svg10.dtd">
<svg version="1.0" xmlns="http://www.w3.org/2000/svg"
 width="976.000000pt" height="976.000000pt" viewBox="0 0 976.000000 976.000000"
 preserveAspectRatio="xMidYMid meet">
<metadata>
Created by potrace 1.14, written by Peter Selinger 2001-2017
</metadata>
<g transform="translate(0.000000,976.000000) scale(0.100000,-0.100000)"
fill="#000000" stroke="none">
<path d="M4873 8138 c-17 -12 -35 -36 -40 -53 -5 -16 -8 -102 -6 -190 5 -347
5 -726 0 -731 -3 -3 -29 -7 -58 -8 -131 -8 -333 -33 -434 -53 -16 -3 -45 -6
-64 -7 l-34 -1 -39 135 c-21 74 -41 142 -43 150 -25 110 -150 521 -163 539
-24 32 -78 50 -119 39 -35 -9 -75 -55 -80 -91 -2 -12 22 -110 53 -217 31 -107
60 -211 65 -230 5 -19 11 -39 13 -45 1 -5 8 -30 15 -55 7 -25 15 -52 18 -60 3
-8 7 -19 8 -25 2 -5 10 -37 20 -70 32 -116 34 -126 22 -130 -15 -5 -167 -46
-187 -50 -8 -2 -41 -13 -72 -24 -32 -11 -58 -17 -58 -14 0 3 -6 1 -12 -4 -7
-5 -51 -22 -98 -38 -47 -15 -120 -43 -162 -60 -71 -30 -78 -31 -91 -16 -29 33
-417 573 -417 579 0 4 -18 19 -41 34 -64 42 -136 21 -164 -47 -24 -56 -18 -68
162 -318 29 -39 57 -77 61 -82 5 -6 26 -35 47 -65 21 -30 62 -88 92 -127 29
-40 53 -76 53 -81 0 -4 -42 -27 -92 -52 -51 -25 -118 -59 -148 -76 -30 -17
-75 -42 -100 -56 -25 -14 -98 -57 -163 -97 l-117 -73 -34 34 c-18 18 -89 85
-156 148 -68 63 -133 124 -144 135 -63 61 -87 77 -119 82 -60 8 -118 -35 -124
-92 -5 -47 11 -77 69 -132 110 -106 154 -147 239 -227 l84 -78 -35 -27 c-57
-43 -194 -154 -215 -174 -11 -11 -35 -31 -53 -45 -42 -32 -62 -71 -62 -120 0
-33 6 -45 35 -71 60 -52 116 -39 201 45 40 39 262 214 272 214 6 0 12 4 14 9
5 12 207 148 323 217 55 32 103 63 107 69 4 5 8 6 8 1 0 -5 8 -3 18 5 9 8 31
21 47 29 17 8 37 20 47 28 9 7 22 15 30 16 7 2 74 32 148 69 125 60 271 126
295 131 6 1 26 10 46 18 42 18 334 116 364 122 11 2 32 9 48 15 15 6 27 9 27
6 0 -2 17 2 39 10 69 24 366 84 499 100 23 3 61 8 85 11 93 12 122 14 372 18
258 4 436 -5 575 -29 14 -2 45 -7 70 -11 24 -3 47 -7 50 -9 3 -1 27 -6 54 -9
26 -4 94 -18 150 -32 55 -14 111 -27 123 -30 36 -7 242 -73 261 -83 9 -5 21
-9 25 -9 27 0 318 -125 463 -198 157 -81 347 -191 352 -205 2 -5 8 -9 14 -9
14 0 207 -132 313 -214 109 -85 198 -157 205 -166 19 -24 135 -110 151 -111
10 -1 28 -2 40 -2 23 -2 76 31 85 53 12 28 13 65 3 96 -10 31 -88 103 -281
258 l-97 77 57 51 c337 301 331 296 328 354 -2 39 -8 52 -35 76 -39 34 -94 41
-132 14 -16 -10 -127 -109 -189 -166 -15 -14 -57 -52 -94 -85 -38 -33 -80 -72
-95 -86 -22 -22 -31 -25 -47 -16 -10 6 -21 13 -24 17 -16 20 -298 186 -445
261 -44 23 -82 43 -84 45 -1 1 47 75 108 164 124 179 232 336 267 388 53 77
12 169 -79 179 -45 5 -49 4 -85 -34 -29 -31 -201 -272 -257 -361 -5 -9 -14
-21 -18 -26 -4 -6 -40 -57 -78 -113 l-71 -102 -42 15 c-22 9 -50 19 -61 24
-70 27 -106 40 -155 56 -30 9 -64 20 -75 25 -23 10 -192 58 -225 64 -13 2 -37
9 -54 15 -17 5 -44 11 -59 12 -36 3 -36 12 13 173 12 39 23 79 25 90 3 11 12
43 20 70 18 62 84 295 90 321 3 10 16 59 29 109 24 88 24 90 6 126 -25 47 -40
59 -86 62 -45 4 -86 -16 -107 -53 -11 -19 -87 -274 -112 -377 -5 -19 -46 -161
-71 -248 -8 -27 -17 -59 -20 -70 -2 -11 -13 -49 -23 -85 -17 -61 -20 -65 -47
-64 -29 2 -118 12 -164 19 -30 5 -181 15 -295 19 -44 2 -82 4 -85 5 -3 0 -6
204 -7 451 -3 469 -4 484 -46 518 -8 7 -34 15 -58 18 -36 4 -50 1 -76 -18z"/>
<path d="M4927 6624 c-1 -1 -54 -5 -118 -8 -63 -4 -126 -8 -140 -11 -13 -2
-60 -9 -104 -15 -132 -18 -390 -75 -473 -104 -23 -8 -44 -15 -47 -16 -3 0 -6
0 -7 -1 -2 0 -10 -2 -18 -4 -16 -3 -231 -80 -265 -95 -91 -39 -302 -134 -310
-140 -5 -4 -59 -33 -119 -64 -148 -78 -436 -258 -444 -278 -2 -5 -10 -8 -17
-8 -7 0 -15 -3 -17 -8 -1 -4 -46 -38 -98 -77 -52 -38 -97 -72 -100 -76 -3 -3
-32 -28 -65 -55 -61 -48 -90 -74 -197 -174 -78 -71 -140 -132 -212 -209 l-58
-62 22 -24 22 -23 -21 -12 c-30 -16 -20 -30 122 -172 147 -148 241 -233 394
-354 113 -91 155 -121 328 -238 204 -138 483 -289 705 -381 63 -26 124 -52
135 -56 43 -19 268 -91 355 -114 41 -12 108 -27 130 -31 14 -3 33 -7 42 -10
10 -3 28 -7 40 -9 13 -2 52 -9 88 -15 64 -12 75 -14 155 -24 198 -28 653 -25
753 4 17 4 32 6 34 4 3 -2 40 3 84 11 43 8 93 17 109 20 17 3 41 8 55 12 14 4
30 8 35 9 6 1 12 3 15 4 3 1 16 3 30 6 14 2 36 8 50 13 20 8 119 38 153 47 4
1 8 2 10 4 1 1 9 3 17 5 19 5 160 59 225 88 70 30 291 141 347 174 93 55 173
107 176 115 2 4 8 8 14 8 9 0 95 56 108 70 3 3 21 17 40 30 31 21 185 142 248
195 145 121 504 484 557 562 23 35 12 69 -45 134 -191 220 -467 484 -637 611
-32 24 -60 45 -63 48 -15 16 -132 100 -139 100 -5 0 -11 3 -13 8 -4 10 -94 72
-105 72 -5 0 -18 8 -29 18 -10 9 -39 28 -64 41 -25 13 -52 29 -60 36 -19 16
-301 156 -360 179 -25 10 -58 24 -75 31 -68 30 -346 117 -418 130 -12 3 -53
11 -92 19 -71 15 -110 21 -177 31 -21 3 -53 7 -72 10 -67 9 -412 25 -419 19z
m363 -238 c33 -5 83 -12 155 -21 32 -5 49 -8 130 -25 82 -18 139 -32 155 -37
8 -4 24 -8 35 -10 37 -7 230 -75 325 -115 159 -67 353 -171 510 -273 74 -48
220 -153 230 -164 3 -3 25 -22 50 -41 25 -19 54 -42 64 -50 108 -85 486 -452
486 -472 0 -11 -308 -319 -398 -398 -284 -249 -617 -462 -935 -598 -138 -59
-348 -129 -447 -148 -14 -3 -51 -12 -84 -20 -32 -8 -60 -13 -63 -10 -3 3 -16
1 -30 -5 -13 -5 -48 -11 -76 -14 -29 -3 -64 -8 -78 -10 -112 -20 -597 -20
-629 0 -4 3 -38 7 -76 11 -38 3 -72 8 -76 10 -4 2 -26 7 -50 10 -35 5 -129 25
-228 49 -404 99 -901 340 -1305 634 -79 57 -231 175 -245 191 -3 3 -34 30 -70
60 -36 30 -108 96 -159 147 l-95 93 76 72 c136 131 276 252 428 368 148 114
356 248 545 351 218 120 569 263 770 315 65 17 145 37 165 40 14 3 33 7 43 10
10 3 30 7 45 9 15 3 38 7 52 9 55 12 152 24 255 32 39 3 71 7 73 9 5 5 415 -3
452 -9z"/>
<path d="M4810 6207 c-3 -3 -27 -7 -55 -10 -139 -16 -325 -95 -457 -196 -224
-169 -359 -387 -415 -666 -7 -34 -8 -318 -2 -360 4 -22 12 -60 20 -85 7 -25
13 -47 14 -50 12 -54 88 -216 128 -273 168 -240 370 -379 662 -453 96 -25 340
-25 442 -1 195 46 362 133 508 264 30 27 126 142 161 193 60 88 133 262 148
355 3 17 10 53 15 80 16 82 4 329 -19 389 -5 15 -7 26 -4 26 4 0 1 7 -6 15 -7
8 -10 15 -7 15 16 0 -80 218 -111 253 -8 9 -12 17 -8 17 4 0 0 7 -9 17 -9 9
-27 32 -40 52 -13 20 -47 61 -77 91 -213 218 -456 323 -760 329 -68 1 -126 0
-128 -2z m285 -235 c114 -24 251 -87 340 -155 48 -37 139 -131 178 -184 32
-42 104 -187 110 -218 2 -11 9 -38 15 -60 25 -91 33 -240 18 -330 -46 -276
-222 -513 -466 -626 -25 -11 -53 -25 -64 -31 -10 -5 -26 -11 -35 -13 -9 -1
-34 -8 -56 -13 -123 -33 -306 -33 -405 -2 -19 6 -46 13 -59 16 -82 17 -243
115 -325 198 -61 61 -130 146 -120 146 4 0 0 8 -8 18 -28 31 -78 141 -95 207
-36 145 -37 370 -2 438 6 9 7 17 4 17 -5 0 25 84 47 130 97 205 329 401 528
446 19 4 42 9 50 11 8 3 33 7 55 9 22 3 41 7 43 9 7 7 200 -4 247 -13z"/>
<path d="M4855 5709 c-289 -30 -503 -268 -503 -559 0 -205 116 -399 296 -493
40 -21 81 -40 90 -42 9 -2 37 -8 62 -14 44 -10 195 -9 235 2 147 39 249 108
330 222 77 108 103 192 103 324 0 133 -25 215 -100 325 -46 67 -57 78 -143
139 -110 78 -235 110 -370 96z m158 -237 c80 -21 162 -94 204 -182 37 -76 39
-189 4 -270 -84 -192 -321 -264 -494 -149 -147 97 -193 279 -112 439 40 78
134 151 218 170 41 9 131 5 180 -8z"/>
<path d="M1400 3332 c0 -4 -12 -13 -28 -19 -53 -24 -76 -99 -52 -169 6 -17 28
-41 51 -56 35 -23 51 -26 99 -24 114 6 168 84 136 196 -12 42 -72 73 -143 76
-35 2 -63 0 -63 -4z"/>
<path d="M7036 3261 c-2 -6 0 -1159 3 -1172 0 -4 27 -8 59 -8 31 -1 85 -3 120
-4 34 -1 63 0 63 3 1 3 2 115 4 250 3 274 9 305 71 359 64 57 177 64 241 15
63 -48 67 -68 68 -358 1 -249 2 -259 20 -263 31 -5 213 -5 223 0 13 9 7 576
-7 622 -40 128 -98 189 -217 230 -57 19 -201 23 -233 6 -12 -7 -21 -8 -21 -4
0 4 -5 2 -12 -5 -7 -7 -18 -12 -26 -12 -8 0 -34 -13 -59 -30 -24 -16 -45 -30
-46 -30 -1 0 -2 92 -2 203 l0 204 -123 0 c-67 0 -124 -3 -126 -6z"/>
<path d="M170 3201 l-35 -6 0 -555 0 -555 25 -2 c25 -2 92 -3 120 -2 8 1 63 0
123 -2 59 -1 109 0 112 2 2 3 33 2 69 -1 36 -3 66 -3 66 0 0 3 29 3 65 0 36
-3 65 -3 65 0 0 3 20 6 45 7 111 6 243 69 289 140 50 76 58 211 17 292 -25 48
-78 99 -134 128 -23 12 -37 22 -30 23 32 1 113 107 130 170 12 43 5 128 -14
170 -59 133 -204 194 -453 190 -36 -1 -69 -1 -75 -1 -5 0 -34 2 -63 3 -28 2
-52 1 -52 -2 0 -3 -21 -3 -47 0 -27 3 -74 3 -106 0 -31 -3 -63 -3 -70 0 -6 4
-28 4 -47 1z m564 -205 c21 -4 52 -20 68 -35 29 -27 54 -96 37 -106 -4 -3 -6
-12 -3 -19 8 -20 -54 -73 -98 -84 -23 -6 -110 -11 -195 -11 l-153 0 0 128 c0
70 2 130 4 132 7 7 298 2 340 -5z m57 -456 c128 -31 148 -191 30 -243 -40 -17
-69 -20 -226 -22 -99 -1 -186 0 -192 3 -10 3 -13 40 -13 138 l0 133 63 3 c115
6 290 -1 338 -12z"/>
<path d="M3432 3202 l-22 -3 2 -557 3 -557 48 -6 c27 -3 50 -2 52 2 3 3 22 3
42 -1 21 -3 49 -3 63 0 14 4 34 4 44 0 11 -3 39 -3 63 0 24 4 46 4 48 0 2 -3
28 -3 59 0 30 3 62 3 72 0 9 -4 36 -4 58 0 23 3 54 3 69 -1 15 -4 29 -4 32 1
3 5 13 7 23 6 39 -6 191 39 230 69 38 29 74 70 94 108 27 52 30 181 5 238 -22
53 -81 114 -133 139 l-45 22 34 27 c84 65 125 177 102 278 -13 57 -28 83 -71
127 -32 32 -133 82 -179 90 -16 2 -30 5 -30 6 0 9 -309 15 -323 6 -6 -3 -13
-2 -17 4 -4 6 -11 8 -16 4 -10 -6 -32 -6 -209 -1 -41 1 -85 1 -98 -1z m579
-206 c87 -18 134 -107 95 -180 -33 -62 -54 -68 -268 -73 l-168 -5 0 129 c0 72
2 132 4 134 8 7 298 3 337 -5z m57 -456 c91 -24 126 -93 97 -190 -7 -22 -71
-60 -113 -67 -44 -7 -351 -11 -369 -5 -10 3 -13 40 -13 137 l0 134 28 3 c60 7
333 -2 370 -12z"/>
<path d="M6370 3026 l0 -104 -65 1 c-59 2 -65 0 -66 -18 -1 -25 -1 -158 0
-167 1 -5 30 -8 66 -8 l65 0 0 -202 c0 -219 10 -286 52 -343 36 -50 86 -84
144 -100 49 -14 57 -15 124 -15 75 -1 105 4 161 27 33 13 40 20 36 37 -4 20
-48 147 -54 155 -1 2 -16 -2 -32 -8 -16 -7 -50 -13 -77 -13 -37 0 -52 6 -73
26 l-26 26 -3 205 -3 205 108 0 108 0 0 89 c0 49 -3 92 -7 96 -3 3 -52 6 -108
7 -98 0 -101 1 -99 21 0 12 1 59 0 105 l-1 82 -125 0 -125 0 0 -104z"/>
<path d="M2145 2952 c-72 -6 -195 -47 -195 -64 0 -5 -6 -8 -13 -8 -22 0 -103
-88 -132 -143 -46 -87 -59 -176 -41 -287 24 -152 164 -289 327 -318 115 -21
245 0 313 51 58 44 57 44 51 -24 -10 -107 -68 -174 -166 -195 -37 -7 -130 -7
-174 1 -49 9 -158 49 -188 70 -24 17 -37 19 -37 6 0 -5 -18 -41 -40 -80 -22
-39 -40 -77 -40 -84 0 -8 30 -29 66 -47 180 -89 448 -98 614 -22 90 42 174
143 195 237 4 17 9 39 13 50 11 38 12 834 1 841 -9 5 -59 6 -194 5 l-35 -1 0
-51 0 -51 -34 29 c-70 62 -185 96 -291 85z m186 -220 c84 -34 136 -123 126
-217 -15 -142 -148 -220 -303 -176 -54 14 -119 78 -133 128 -36 128 24 237
149 273 34 10 129 5 161 -8z"/>
<path d="M5081 2949 c-74 -9 -157 -47 -199 -90 l-29 -30 2 51 c1 28 -1 53 -6
56 -5 2 -57 5 -116 6 -89 0 -108 -2 -112 -15 -5 -13 -6 -783 -2 -834 1 -10
101 -24 101 -13 0 3 33 5 72 5 l73 0 1 205 c1 288 4 309 62 368 52 53 95 70
175 67 l47 -2 0 118 c0 66 -1 118 -2 118 -2 -1 -32 -5 -67 -10z"/>
<path d="M5677 2954 c-1 -1 -27 -5 -57 -8 -92 -11 -202 -62 -268 -126 -53 -51
-111 -164 -119 -230 -4 -45 -4 -160 1 -168 3 -5 7 -20 9 -33 14 -77 92 -184
174 -240 44 -31 124 -63 178 -73 40 -7 165 -8 195 -2 14 4 38 9 55 12 51 9
118 43 170 87 120 100 165 218 154 402 -3 58 -43 152 -86 206 -56 70 -159 138
-229 153 -78 16 -170 26 -177 20z m131 -234 c78 -44 113 -120 108 -235 -6
-125 -85 -206 -206 -210 -94 -3 -172 44 -208 125 -20 46 -23 154 -5 206 41
122 196 179 311 114z"/>
<path d="M8505 2953 c-166 -26 -252 -73 -337 -184 -33 -45 -60 -107 -74 -170
-6 -32 -6 -146 1 -182 14 -74 75 -183 122 -220 13 -10 30 -25 37 -33 8 -8 18
-14 22 -14 4 0 15 -6 23 -14 9 -8 45 -24 81 -36 197 -66 429 -28 534 89 l20
22 -55 56 c-30 31 -59 62 -65 69 -9 10 -18 8 -44 -11 -95 -70 -249 -75 -346
-12 -32 21 -66 67 -78 104 l-7 21 322 1 c177 0 324 3 326 5 10 10 5 142 -7
186 -15 59 -70 158 -107 195 -44 45 -141 103 -183 111 -3 0 -21 4 -40 7 -44 9
-119 14 -145 10z m131 -208 c21 -9 51 -29 66 -44 30 -30 63 -99 53 -109 -6 -6
-352 -9 -397 -3 -23 3 -26 6 -18 21 5 9 7 20 4 22 -2 3 2 11 11 18 8 7 15 17
15 23 0 20 64 67 110 81 53 16 104 13 156 -9z"/>
<path d="M9658 2955 c-2 -2 -25 -6 -52 -9 -57 -7 -151 -51 -176 -83 -27 -35
-38 -29 -30 16 4 22 4 44 1 50 -6 9 -75 13 -190 12 l-53 -1 4 -35 c2 -19 1
-35 -2 -35 -4 0 -4 -21 0 -48 3 -26 3 -57 0 -70 -3 -12 -3 -80 0 -150 3 -70 2
-129 -3 -130 -4 -2 -5 -7 -2 -12 4 -7 6 -66 4 -130 0 -8 0 -68 1 -133 l2 -117
52 0 c28 0 82 0 119 -1 37 -1 70 1 72 3 2 2 5 111 6 241 1 236 2 239 28 290
37 73 95 108 185 110 36 1 67 7 67 12 1 6 2 56 3 112 1 88 -1 102 -16 106 -9
3 -18 3 -20 2z"/>
<path d="M1383 2942 c-39 -3 -43 -6 -43 -30 -1 -38 -1 -761 0 -798 0 -29 2
-31 43 -33 23 -2 47 -3 52 -2 102 2 136 2 145 -4 7 -4 10 131 10 429 l0 435
-82 3 c-46 2 -102 2 -125 0z"/>
</g>
</svg>
